<?xml version="1.0" encoding="utf-8"?>
<!-- Generator: Adobe Illustrator 22.1.0, SVG Export Plug-In . SVG Version: 6.00 Build 0)  -->
<svg version="1.1" id="Ebene_1" xmlns="http://www.w3.org/2000/svg" xmlns:xlink="http://www.w3.org/1999/xlink" x="0px" y="0px"
	 viewBox="0 0 600 600" style="enable-background:new 0 0 600 600;" xml:space="preserve">
<style type="text/css">
	.st0{fill:#EEEBE0;}
	.st1{fill:#C90A1B;}
	.st2{fill:#FFFFFF;}
	.st3{fill:#960814;}
	.st4{fill:#223F5E;}
	.st5{fill:#162A40;}
</style>
<polygon class="st0" points="429.8,289.5 463.7,283.9 510.9,272.1 548.4,256.8 575.6,237.9 582.9,225.7 568.8,197.6 537.7,156.1 
	516.1,134.2 496.4,120.5 468.2,109.4 445.9,101.9 440.3,100.6 416.5,123.5 440.3,149.4 456,144.9 467.5,149.4 479.9,148.2 
	483.8,152.7 508.8,196.7 518.9,213.2 496.6,193.7 464.1,184.6 436.9,184.3 406.9,190.5 386.8,200 402,253.1 "/>
<polygon class="st0" points="171.8,289.5 137.8,283.9 90.6,272.1 53.2,256.8 26,237.9 18.7,225.7 32.8,197.6 63.9,156.1 85.5,134.2 
	105.2,120.5 133.3,109.4 155.7,101.9 161.3,100.6 185.1,123.5 161.3,149.4 145.5,144.9 134.1,149.4 121.7,148.2 117.7,152.7 
	92.8,196.7 82.7,213.2 105,193.7 137.5,184.6 164.7,184.3 194.7,190.5 214.8,200 199.6,253.1 "/>
<polygon class="st0" points="210.1,151.8 209.1,135.3 219.4,114.8 230.9,109.2 245,106.8 250.8,105.8 257.2,100.4 274.2,96.1 
	285.1,96.1 296.9,99.8 314.4,106.2 325.1,106 333.5,102.3 333.5,107 331.6,114.3 325.5,121.4 329.8,126.8 341.8,140.2 354,160.5 
	366.2,181.4 366.2,188 236.7,185.8 247.4,170.2 247.6,163.7 241.2,167.6 230.9,166.3 240.6,159.5 246.5,154.4 253.2,151 262,146.4 
	266.7,142.1 267.3,136.6 253.4,135.1 238.4,134.9 222,140.9 "/>
<polygon class="st1" points="256.7,141.4 247.8,144 239.6,149.7 235.7,156.1 235.7,160.5 263.8,140.2 "/>
<circle class="st2" cx="301.2" cy="296.7" r="129.1"/>
<circle class="st3" cx="300.8" cy="296.7" r="108.4"/>
<polygon points="289.2,116.5 262.7,116.5 256,113.2 254.7,116 261.7,119.5 269.7,119.5 275.5,126.8 285.4,119.6 289.2,119.7 "/>
<path class="st1" d="M233.2,163.7c-1-23.3,30.1-25.3,30.4-25.4l0.2,3.1c-1.2,0.1-28.4,1.8-27.5,22.1L233.2,163.7z"/>
<path d="M586.2,224.7c-1.5-3.6-36.7-87.2-106.3-114.3l-39.6-13.2L413,123.3l25.9,28.5l16.5-4c5.9,3.6,16.2,7.1,24.5,3.2
	c3,7.7,11.1,26.6,23.7,44.2c-55.8-30.7-107.5-4.1-117.8,1.9c-3.6-3.1-7.3-6-11.2-8.7C352.3,151.3,337,128.7,329,121
	c7.4-7.1,12.3-20.3,12.9-22.1l4.6-13l-9.7,9.8c-14.6,14.8-33.9,3-35.1,2.2c-29.6-12.6-48.8,1.6-53.5,5.6c-18.2-0.5-29.5,9-30,9.4
	l-0.8,1c-4.3,9-9.3,19.1-10,20.2c-0.7,0.9-1.8,2.2-0.7,20.6l0.4,6.7l16-15.2c0.1-0.1,11-9.7,36.7-4.6l-36.9,26.1l7.6,1.2
	c0.4,0.1,4.7,0.7,10.4,0.7c0.3,0,0.7,0,1.1,0c-1.2,4.1-5.3,11.9-19.8,22.5v0.1c-2.3,1.7-4.5,3.4-6.6,5.3c-10.1-5.9-61.9-32.8-118-2
	c12.7-17.6,20.7-36.4,23.7-44.2c8.3,3.9,18.6,0.3,24.5-3.2l16.5,4l25.9-28.5l-27.3-26.1l-39.7,13.2C51.8,137.7,16.5,221.4,15.1,225
	l-0.5,1.3l0.6,1.3c24,48.7,143.6,63.8,154.8,65.1c-1,28.3,7,56.1,23.6,79.7c20.1,28.6,50.2,47.7,84.7,53.7c7.6,1.3,15.2,2,22.8,2
	c26.7,0,52.8-8.2,75.1-23.9c28.6-20.1,47.7-50.2,53.7-84.7c1.6-9,2.2-18,1.9-26.9c13.8-1.6,130.6-17,154.3-65.1l0.6-1.3L586.2,224.7
	z M239.8,163.2l27.9-19.7l0.3-1.1l-0.1-0.1l1.4-4.9c-34.8-9.8-49.9,3.6-50.5,4.2l-6.2,5.9c-0.2-4.6-0.2-8.8,0-10.1
	c1.6-2.6,6.2-12.1,10.1-20.1c2.2-1.7,12-8.3,26.4-7.5l1.4,0.1l1-1c0.2-0.2,18.2-17.8,47.2-5.5c0.2,0.1,16.8,10.4,32.9,3.3
	c-3,5.6-6.8,10.8-10.4,12.2l2,5.1l0,0l0,0l0.3,0.7c0.1-0.1,0.3-0.1,0.4-0.2c2.5,2,11.7,11.7,39.2,56.9
	c-12.3-6.6-25.6-11.4-39.7-13.8c-27.8-4.9-55.1-0.5-78.9,10.8c2.5-3.9,3.7-7.2,4-9.5c5.3-0.6,10.9-1.9,15.4-4.7l-3.3-5.3
	C254.7,162.6,246.1,163.2,239.8,163.2z M170.2,286.1c-12.2-1.5-125.3-16.6-148.8-60.4c4.8-10.8,39.8-85.3,101.9-109.5l36-12
	l20.2,19.3l-19.3,21.3l-15.5-3.8l-1.1,0.8c-0.7,0.4-16.3,10.6-24.2-0.4l-5.1,3.6c0.6,0.8,1.2,1.5,1.8,2.2c-3.1,8-16.2,40-37.3,60.4
	l0,0c-0.6,0.5-1.1,0.9-1.7,1.3l3.9,4.8c58.7-47.7,116.1-20.1,129.8-12.2c-19.8,18.7-34.1,43.7-39.2,72.5
	C171,278.2,170.5,282.1,170.2,286.1z M423.8,318.2c-5.7,32.8-23.9,61.5-51.2,80.7c-27.3,19.2-60.4,26.6-93.2,20.8
	c-32.8-5.7-61.5-23.9-80.7-51.2s-26.6-60.4-20.9-93.2c5.7-32.8,23.9-61.5,51.2-80.7c21.3-14.9,46.1-22.7,71.5-22.7
	c7.2,0,14.5,0.6,21.7,1.9c17.5,3,33.4,9.7,47.3,18.9l0,0c0,0,0.1,0.1,0.2,0.2l0.1,0.1l0,0c0.7,0.5,2.2,1.5,2.6,1.8l0,0
	C410.7,221.7,432.3,269.1,423.8,318.2z M431.3,286.1c-1.8-23.1-9.7-45.3-23.3-64.7c-5.1-7.3-11-13.9-17.3-19.8
	c14.3-7.9,71.9-34.4,129.5,12.4l3.9-4.8c-0.6-0.5-1.1-0.9-1.7-1.3l0,0c-21.1-20.4-34.2-52.4-37.3-60.4c0.6-0.7,1.2-1.4,1.8-2.2
	l-5.1-3.6c-7.8,11-23.5,0.8-24.2,0.4l-1.1-0.8l-15.5,3.8l-19.3-21.3l20.2-19.3l35.8,11.9c62.3,24.3,97.3,98.7,102.1,109.5
	C556.5,269.1,445.2,284.3,431.3,286.1z"/>
<circle class="st4" cx="300.2" cy="296.5" r="70.9"/>
<path class="st2" d="M300.5,373.8c-4.5,0-9.1-0.4-13.6-1.2c-20.6-3.6-38.6-15-50.6-32.1s-16.7-37.9-13.1-58.5
	c3.6-20.6,15-38.6,32.1-50.6s37.9-16.7,58.5-13.1c42.5,7.4,71.1,48.1,63.7,90.6c-3.6,20.6-15,38.6-32.1,50.6
	C332.1,368.9,316.5,373.8,300.5,373.8z M300.2,229.6c-13.4,0-26.5,4.1-37.7,12c-14.4,10.1-24,25.2-27,42.6c-3,17.3,0.9,34.8,11,49.2
	c10.1,14.4,25.2,24,42.6,27c17.3,3,34.8-0.9,49.2-11c14.4-10.1,24-25.2,27-42.6l0,0c6.2-35.8-17.8-70-53.6-76.2
	C307.9,229.9,304,229.6,300.2,229.6z"/>
<g>
	<polygon class="st5" points="333.6,298.1 341.3,290.2 328.5,281.8 325.1,287 331.6,291.2 327.3,295.7 327.3,295.7 324.9,298.2 
		341.4,314.6 345.7,310.1 	"/>
	<polygon class="st5" points="321.1,299.8 321.2,299.7 316.7,296.1 316.6,296 316.6,296 315.2,294.8 317.5,291.9 318.2,291.1 
		308,281.7 303.8,286.3 309.6,291.7 306.4,295.7 311.2,299.7 311.3,299.6 312.6,300.7 304,310.8 308.8,314.8 321.4,300 	"/>
	<polygon class="st5" points="273.4,290.5 273.4,284.3 259.2,284.3 259.2,285.9 259.2,285.9 259.2,314.3 265.4,314.3 265.4,300.9 
		273.4,300.9 273.4,294.7 265.4,294.7 265.4,290.5 	"/>
	<polygon class="st5" points="300,310.3 287.1,297.4 299.4,285.2 294.9,280.8 280.6,295.1 278.3,297.4 279.1,298.2 295.6,314.7 	"/>
</g>
<g>
	<path d="M104.2,393.3c0.1-0.5,0.4-0.8,0.8-1.1l39.4-23.4c0.4-0.3,0.9-0.3,1.4-0.2c0.5,0.1,0.8,0.4,1.1,0.8l11.1,18.8
		c3,5.1,4.3,9.6,3.6,13.3c-0.6,3.8-2.9,6.8-6.8,9.1c-1.9,1.2-3.9,1.6-6,1.4c-2-0.2-3.7-0.7-5.1-1.6c0.3,2.1-0.1,4.2-1.1,6.3
		c-1,2.1-2.6,3.8-4.7,5.1c-4.1,2.4-8.1,3-11.9,1.6c-3.9-1.3-7.3-4.5-10.3-9.5l-11.4-19.3C104.2,394.2,104.1,393.8,104.2,393.3z
		 M123.3,407.8c0.9,1.6,2.1,2.5,3.5,2.9c1.4,0.3,2.8,0.1,4.1-0.7c1.4-0.8,2.3-1.9,2.6-3.4c0.4-1.4,0.1-2.9-0.8-4.5L128,394l-9.5,5.7
		L123.3,407.8z M140.4,396.9c0.9,1.5,2,2.4,3.3,2.7s2.6,0.1,3.9-0.7c1.3-0.7,2-1.7,2.4-3c0.3-1.3,0-2.7-0.9-4.2l-4.5-7.6l-8.6,5.1
		L140.4,396.9z"/>
	<path d="M141.4,447.9c0-0.5,0.1-0.9,0.4-1.3l30.6-34.1c0.3-0.4,0.8-0.6,1.2-0.6c0.5,0,0.9,0.1,1.3,0.5l14.4,13
		c4.6,4.1,7.3,8.4,8,12.9c0.7,4.4-0.6,8.6-4.1,12.4c-2.2,2.4-4.6,4-7.3,4.7s-5.4,0.6-8.3-0.2l-4.4,19.2c-0.1,0.3-0.2,0.5-0.4,0.7
		c-0.3,0.3-0.6,0.4-1,0.5c-0.4,0-0.8-0.1-1.1-0.4l-7.4-6.6c-1-0.9-1.3-2-0.9-3.4l4.5-16.6l-5-4.5l-10.3,11.5
		c-0.3,0.4-0.8,0.6-1.2,0.6s-0.9-0.2-1.3-0.5l-7.2-6.5C141.6,448.8,141.5,448.4,141.4,447.9z M174.8,441.5c1.5,1.4,3,2,4.5,2
		s2.8-0.7,4-2.1s1.8-2.8,1.7-4.3s-0.8-2.9-2.4-4.3l-5.8-5.2l-7.8,8.7L174.8,441.5z"/>
	<path d="M197.8,486.8c-2.2-4.5-2.1-9.7,0.3-15.6c0.5-1.2,1.3-3.1,2.4-5.6c1.1-2.5,2-4.3,2.6-5.6c2.7-5.6,6.6-9.1,11.5-10.5
		c5-1.4,10.4-0.8,16.4,1.9c6,2.7,10,6.4,12.2,11.1s2.1,9.9-0.3,15.6c-1,2.5-1.8,4.4-2.4,5.7c-0.6,1.3-1.5,3.1-2.6,5.5
		c-2.8,5.6-6.6,9.2-11.5,10.5c-4.8,1.4-10.3,0.7-16.4-2.1C204.1,495,199.9,491.3,197.8,486.8z M220.8,488.5c1.9-0.7,3.6-2.5,4.9-5.2
		c1.2-2.4,2.1-4.2,2.5-5.3c0.5-1.1,1.2-2.8,2.2-5.3c1.2-2.8,1.4-5.2,0.7-7.2s-2.2-3.4-4.4-4.4c-2.3-1-4.4-1.2-6.3-0.4
		c-1.9,0.7-3.6,2.5-4.9,5.2c-0.6,1.2-1.4,2.9-2.4,5.2c-1,2.3-1.8,4.1-2.4,5.4c-1.2,2.8-1.4,5.2-0.7,7.2s2.2,3.4,4.5,4.5
		C216.7,489.1,218.8,489.2,220.8,488.5z"/>
	<path d="M309.3,512.7c-4.2-2.8-6.8-7.3-7.7-13.4c-0.2-1.3-0.5-3.3-0.8-6.2c-0.3-2.9-0.6-5-0.7-6.3c-0.5-6.1,1-11,4.5-14.8
		s8.5-6,15.1-6.8c4.2-0.5,8-0.3,11.4,0.7s6.3,2.6,8.5,5c2.2,2.3,3.6,5.3,4.1,8.8c0,0.4-0.1,0.8-0.3,1.1c-0.3,0.3-0.6,0.5-1,0.5
		l-9.9,1.2c-0.7,0.1-1.1,0-1.5-0.2c-0.3-0.2-0.7-0.7-1-1.3c-0.9-2.2-2.1-3.7-3.5-4.4c-1.4-0.8-3.3-1-5.5-0.7
		c-5.3,0.6-7.7,3.9-7.2,9.8c0.1,1.3,0.3,3.2,0.6,5.8c0.3,2.6,0.6,4.6,0.8,5.9c0.9,5.9,4,8.5,9.2,7.9c2.1-0.3,3.9-0.9,5.1-2
		c1.3-1.1,2.1-2.8,2.4-5.1c0.1-0.7,0.3-1.2,0.6-1.5c0.3-0.3,0.8-0.5,1.4-0.6l9.9-1.2c0.4,0,0.8,0,1.1,0.3c0.3,0.2,0.5,0.6,0.6,1
		c0.3,3.5-0.3,6.7-1.9,9.5s-4,5.1-7.1,6.8s-6.8,2.9-10.9,3.4C318.9,516.4,313.5,515.5,309.3,512.7z"/>
	<path d="M373.1,499.9c-4.9-1.4-8.7-4.9-11.5-10.5c-0.6-1.2-1.4-3-2.6-5.5c-1.1-2.5-1.9-4.4-2.5-5.6c-2.4-5.7-2.5-10.9-0.3-15.6
		s6.3-8.4,12.3-11.1s11.4-3.3,16.4-1.9s8.8,5,11.6,10.5c1.2,2.4,2.1,4.3,2.7,5.5c0.6,1.3,1.4,3.1,2.4,5.6c2.4,5.8,2.5,11,0.4,15.6
		c-2.2,4.5-6.3,8.2-12.4,10.9C383.4,500.6,377.9,501.3,373.1,499.9z M389.5,483.7c0.7-2,0.5-4.3-0.7-7.2c-1-2.5-1.8-4.3-2.3-5.4
		s-1.3-2.8-2.5-5.1c-1.3-2.7-3-4.5-4.9-5.2s-4-0.6-6.3,0.4s-3.8,2.5-4.5,4.5s-0.5,4.3,0.7,7.2c0.5,1.2,1.3,3,2.3,5.2
		c1,2.3,1.9,4.1,2.5,5.3c1.3,2.7,3,4.5,4.9,5.2s4,0.6,6.3-0.4C387.3,487.1,388.8,485.7,389.5,483.7z"/>
	<path d="M429.8,473.6c-0.5,0-0.9-0.2-1.2-0.6l-30.7-34c-0.3-0.4-0.5-0.8-0.5-1.3s0.2-0.9,0.6-1.2l13.8-12.4
		c5.2-4.7,10.3-7.1,15.4-7.2s9.8,2.1,14.1,6.5c0.9,1,2.2,2.3,3.7,4s2.7,3,3.5,4c8.3,9.9,7.2,19.6-3.3,29.1l-14,12.7
		C430.7,473.5,430.3,473.6,429.8,473.6z M437.8,452.9c2.2-2,3.4-4,3.5-6s-0.9-4.2-2.9-6.5c-0.8-1.1-2-2.4-3.4-4s-2.7-2.9-3.6-3.8
		c-2.1-2.2-4.2-3.3-6.3-3.3c-2.1,0-4.2,0.9-6.4,2.9l-5,4.5l18.9,20.9L437.8,452.9z"/>
	<path d="M476.3,425.7c-0.5,0.1-0.9,0.1-1.3-0.2L435.7,402c-0.4-0.3-0.7-0.6-0.9-1.1c-0.1-0.5-0.1-0.9,0.2-1.4l17.1-28.6
		c0.3-0.4,0.6-0.7,1.1-0.8c0.5-0.1,0.9-0.1,1.4,0.2l6,3.6c0.4,0.3,0.7,0.6,0.8,1.1c0.1,0.5,0,0.9-0.2,1.4l-11.4,19.1l7.7,4.6
		l10.6-17.8c0.3-0.4,0.6-0.7,1.1-0.8c0.5-0.1,0.9,0,1.4,0.2l5.5,3.3c0.4,0.3,0.7,0.6,0.8,1.1c0.1,0.5,0.1,0.9-0.2,1.4l-10.6,17.8
		l7.9,4.7l11.7-19.6c0.3-0.4,0.6-0.7,1.1-0.8c0.5-0.1,0.9-0.1,1.4,0.2l6,3.6c0.4,0.3,0.7,0.6,0.8,1.1c0.1,0.5,0,0.9-0.2,1.4
		L477.4,425C477.2,425.3,476.8,425.6,476.3,425.7z"/>
</g>
<g>
	<path class="st3" d="M127,367.5c-1.1-0.1-2.1-0.7-2.6-1.7L111.6,340c-0.8-1.5-0.1-3.4,1.4-4.2c1.5-0.8,3.4-0.1,4.2,1.4l12.7,25.8
		c0.8,1.5,0.1,3.4-1.4,4.2C128,367.4,127.5,367.5,127,367.5z"/>
	<path class="st3" d="M115.8,373c-1.1-0.1-2.1-0.7-2.6-1.7L95.3,335c-0.8-1.5-0.1-3.4,1.4-4.2c1.5-0.8,3.4-0.1,4.2,1.4l17.9,36.3
		c0.8,1.5,0.1,3.4-1.4,4.2C116.8,372.9,116.3,373,115.8,373z"/>
	<path class="st3" d="M104.6,378.5c-1.1-0.1-2.1-0.7-2.6-1.7L89.3,351c-0.8-1.5-0.1-3.4,1.4-4.2c1.5-0.8,3.4-0.1,4.2,1.4l12.7,25.8
		c0.8,1.5,0.1,3.4-1.4,4.2C105.6,378.4,105.1,378.5,104.6,378.5z"/>
</g>
<g>
	<path class="st3" d="M468,368.5c-0.4,0-0.9-0.1-1.3-0.3c-1.6-0.7-2.3-2.5-1.6-4.1l11.7-26.3c0.7-1.6,2.5-2.3,4.1-1.6
		c1.6,0.7,2.3,2.5,1.6,4.1l-11.7,26.3C470.2,367.8,469.1,368.5,468,368.5z"/>
	<path class="st3" d="M479.3,373.6c-0.4,0-0.9-0.1-1.3-0.3c-1.6-0.7-2.3-2.5-1.6-4.1l16.4-37c0.7-1.6,2.6-2.3,4.1-1.6
		c1.6,0.7,2.3,2.5,1.6,4.1l-16.4,37C481.6,372.9,480.5,373.6,479.3,373.6z"/>
	<path class="st3" d="M490.7,378.7c-0.4,0-0.9-0.1-1.3-0.3c-1.6-0.7-2.3-2.5-1.6-4.1l11.7-26.3c0.7-1.6,2.6-2.3,4.1-1.6
		c1.6,0.7,2.3,2.5,1.6,4.1l-11.7,26.3C493,378,491.9,378.6,490.7,378.7z"/>
</g>
<polygon class="st3" points="267.2,484.1 273.2,474.7 277,485.2 287.7,488 278.9,494.8 279.6,505.9 270.4,499.7 260,503.7 
	263.1,493 256,484.4 "/>
</svg>
